<svg xmlns="http://www.w3.org/2000/svg" width="382.979" height="162.576" viewBox="0 0 382.979 162.576">
  <g id="Group_2" data-name="Group 2" transform="translate(-720.131 -105.686)">
    <g id="Group_1" data-name="Group 1" transform="translate(720.134 105.686)">
      <path id="cube-fill-svgrepo-com" d="M77.216,79.454,147.6,39.483a17.522,17.522,0,0,0-4.11-2.914L90.814,6.535A27.613,27.613,0,0,0,77.216,2.5a27.612,27.612,0,0,0-13.6,4.035L10.946,36.569a17.492,17.492,0,0,0-4.109,2.914Z" transform="translate(-1.382 -2.5)" fill="#5b4fb9"/>
      <path id="cube-fill-svgrepo-com-2" data-name="cube-fill-svgrepo-com" d="M74.964,141.285V64.629L4.809,24.583a24.983,24.983,0,0,0-.6,5.678v58.2c0,10.833,3.81,14.868,10.759,18.828l58.5,33.322A6.587,6.587,0,0,0,74.964,141.285Z" transform="translate(-4.211 21.291)" fill="#2a8edc"/>
      <path id="cube-fill-svgrepo-com-3" data-name="cube-fill-svgrepo-com" d="M43.162,141.285a6.586,6.586,0,0,0,1.494-.672l58.5-33.322c6.948-3.96,10.758-8,10.758-18.828v-58.2a25.005,25.005,0,0,0-.6-5.678L43.162,64.629Z" transform="translate(37.752 21.291)" fill="#e84da0"/>
    </g>
    <path id="Path_1" data-name="Path 1" d="M35.913-43.417a22.638,22.638,0,0,0-8.305,1.485,18,18,0,0,0-6.527,4.321,19.821,19.821,0,0,0-4.254,7,27.492,27.492,0,0,0-1.53,9.521,28.518,28.518,0,0,0,1.394,9.34A17.99,17.99,0,0,0,20.7-5.019,16.667,16.667,0,0,0,27.063-.944,24.755,24.755,0,0,0,35.59.428a46.425,46.425,0,0,0,6.978-.54A40.077,40.077,0,0,0,49.23-1.687v9.5a50.694,50.694,0,0,1-6.8,1.417,53.764,53.764,0,0,1-7.562.517A38.133,38.133,0,0,1,21.416,7.563a26.249,26.249,0,0,1-9.7-6.168A25.634,25.634,0,0,1,5.865-8.148,36.71,36.71,0,0,1,3.906-20.42,37.957,37.957,0,0,1,6-33.2a29.743,29.743,0,0,1,6.032-10.218,27.434,27.434,0,0,1,9.859-6.8,34.978,34.978,0,0,1,13.392-2.52,48.453,48.453,0,0,1,7.247.517A35.124,35.124,0,0,1,48.7-50.755v9.362a43.6,43.6,0,0,0-6.707-1.575,42.345,42.345,0,0,0-6.078-.448ZM78.408,9.747a23.655,23.655,0,0,1-10.9-2.229,15.592,15.592,0,0,1-6.527-6.01,16.114,16.114,0,0,1-1.729-4.456,23.987,23.987,0,0,1-.562-5.4V-35H69.356V-9.472a19.937,19.937,0,0,0,.315,3.8A9.833,9.833,0,0,0,70.623-2.9,6.839,6.839,0,0,0,73.684.046a10.669,10.669,0,0,0,4.725.968,10.442,10.442,0,0,0,4.929-1.08,6.914,6.914,0,0,0,3.084-3.287,13.67,13.67,0,0,0,1.037-5.9V-35H98.128V-8.351A19.689,19.689,0,0,1,96.284.607a14.946,14.946,0,0,1-2.678,3.759,15.684,15.684,0,0,1-3.871,2.881,20.41,20.41,0,0,1-5.052,1.846,27.838,27.838,0,0,1-6.275.653Zm72.883-23.678a29.54,29.54,0,0,1-1.71,10.444A21.972,21.972,0,0,1,145.1,3.985a17.843,17.843,0,0,1-6.234,4.345,18.294,18.294,0,0,1-6.978,1.417,15.171,15.171,0,0,1-4.456-.607,15.364,15.364,0,0,1-3.466-1.508,13.756,13.756,0,0,1-2.5-1.891,16.969,16.969,0,0,1-1.6-1.755h-.18l-1.035,4.636h-8.824q.09-1.936.158-4.794t.068-5.424V-56.567h10.669V-38.42q0,1.936-.023,3.578t-.068,2.543h.09a26.341,26.341,0,0,1,2.251-1.4,19.719,19.719,0,0,1,2.651-1.216,18.774,18.774,0,0,1,3.111-.855,18.867,18.867,0,0,1,3.511-.315,19.546,19.546,0,0,1,7.09,1.328,17.187,17.187,0,0,1,6.123,4.052,19.387,19.387,0,0,1,4.254,6.978,28.1,28.1,0,0,1,1.58,9.791Zm-11.028.54a22.223,22.223,0,0,0-.99-7.045,11.1,11.1,0,0,0-2.588-4.5,8.419,8.419,0,0,0-3.332-2.093,11.524,11.524,0,0,0-3.443-.54,13.107,13.107,0,0,0-4.772.945,16.848,16.848,0,0,0-4.411,2.521V-3.217a15.046,15.046,0,0,0,1.553,1.508,13.314,13.314,0,0,0,2.074,1.441,12.94,12.94,0,0,0,2.5,1.081,9.49,9.49,0,0,0,2.881.428A9.468,9.468,0,0,0,134.3.183a9.334,9.334,0,0,0,3.287-3,14.231,14.231,0,0,0,2-4.61,24.415,24.415,0,0,0,.667-5.967ZM183.2,1.149a35.334,35.334,0,0,0,6.482-.63,50.161,50.161,0,0,0,6.843-1.8V7.226a31.94,31.94,0,0,1-6.347,1.709,47.547,47.547,0,0,1-8.873.807,31.806,31.806,0,0,1-8.8-1.193,19.142,19.142,0,0,1-7.27-3.849,18.524,18.524,0,0,1-4.929-6.888,25.891,25.891,0,0,1-1.823-10.263,28.936,28.936,0,0,1,1.71-10.4,21.164,21.164,0,0,1,4.591-7.382,18.9,18.9,0,0,1,6.6-4.389,20.762,20.762,0,0,1,7.675-1.464,22.3,22.3,0,0,1,7.637,1.26,15.327,15.327,0,0,1,6.032,3.962,18.515,18.515,0,0,1,3.962,6.955,31.911,31.911,0,0,1,1.417,10.06q-.045,2.251-.135,3.826H169.384a13.076,13.076,0,0,0,1.351,5.155A9.929,9.929,0,0,0,173.683-1.4,12.143,12.143,0,0,0,177.937.535a21.678,21.678,0,0,0,5.266.613Zm-4.277-28.9a8.35,8.35,0,0,0-3.6.743,8.45,8.45,0,0,0-2.723,2.026,9.884,9.884,0,0,0-1.823,3,14.421,14.421,0,0,0-.9,3.646H187.03a12.524,12.524,0,0,0-.517-3.646,8.968,8.968,0,0,0-1.53-3,7.242,7.242,0,0,0-2.52-2.026A7.909,7.909,0,0,0,178.927-27.751Z" transform="translate(904 218.228)" stroke="#000" stroke-width="2"/>
  </g>
</svg>
