<svg id="Group_1" data-name="Group 1" xmlns="http://www.w3.org/2000/svg" width="182.666" height="195.804" viewBox="0 0 182.666 195.804">
  <path id="cube-fill-svgrepo-com" d="M91.6,95.183l84.765-48.141a21.1,21.1,0,0,0-4.95-3.51L107.978,7.359C102.4,4.21,97,2.5,91.6,2.5S80.8,4.21,75.224,7.359L11.786,43.533a21.067,21.067,0,0,0-4.949,3.51Z" transform="translate(-0.268 -2.5)" fill="#5b4fb9"/>
  <path id="cube-fill-svgrepo-com-2" data-name="cube-fill-svgrepo-com" d="M89.425,165.137V72.814L4.931,24.583a30.09,30.09,0,0,0-.72,6.839v70.1c0,13.047,4.589,17.907,12.958,22.676l70.457,40.133A7.932,7.932,0,0,0,89.425,165.137Z" transform="translate(-4.211 30.667)" fill="#2a8edc"/>
  <path id="cube-fill-svgrepo-com-3" data-name="cube-fill-svgrepo-com" d="M43.162,165.137a7.931,7.931,0,0,0,1.8-.81L115.419,124.2c8.369-4.769,12.957-9.629,12.957-22.676v-70.1a30.116,30.116,0,0,0-.719-6.839l-84.5,48.232Z" transform="translate(54.29 30.667)" fill="#e84da0"/>
</svg>
